<svg width="48" height="48" viewBox="0 0 48 48" fill="none" xmlns="http://www.w3.org/2000/svg">
<g filter="url(#filter0_d)">
<path d="M44 20C44 8.95599 35.044 0 24 0C12.956 0 4 8.95599 4 20C4 31.044 12.956 40 24 40C24.1175 40 24.2344 39.9976 24.3516 39.9954V24.4263H20.0547V19.4186H24.3516V15.7336C24.3516 11.46 26.9605 9.13391 30.7728 9.13391C32.5983 9.13391 34.1675 9.27002 34.625 9.33075V13.7973H31.9962C29.9222 13.7973 29.5206 14.783 29.5206 16.2292V19.4186H34.4797L33.8334 24.4263H29.5206V39.2273C37.8803 36.8307 44 29.129 44 20Z" fill="white"/>
</g>
<defs>
<filter id="filter0_d" x="0" y="0" width="48" height="48" filterUnits="userSpaceOnUse" color-interpolation-filters="sRGB">
<feFlood flood-opacity="0" result="BackgroundImageFix"/>
<feColorMatrix in="SourceAlpha" type="matrix" values="0 0 0 0 0 0 0 0 0 0 0 0 0 0 0 0 0 0 127 0"/>
<feOffset dy="4"/>
<feGaussianBlur stdDeviation="2"/>
<feColorMatrix type="matrix" values="0 0 0 0 0 0 0 0 0 0 0 0 0 0 0 0 0 0 0.25 0"/>
<feBlend mode="normal" in2="BackgroundImageFix" result="effect1_dropShadow"/>
<feBlend mode="normal" in="SourceGraphic" in2="effect1_dropShadow" result="shape"/>
</filter>
</defs>
</svg>
